<?xml version="1.0" encoding="UTF-8" standalone="no"?>
<!-- Generator: Adobe Illustrator 16.0.0, SVG Export Plug-In . SVG Version: 6.00 Build 0)  -->

<svg
   xmlns:dc="http://purl.org/dc/elements/1.1/"
   xmlns:cc="http://creativecommons.org/ns#"
   xmlns:rdf="http://www.w3.org/1999/02/22-rdf-syntax-ns#"
   xmlns:svg="http://www.w3.org/2000/svg"
   xmlns="http://www.w3.org/2000/svg"
   xmlns:sodipodi="http://sodipodi.sourceforge.net/DTD/sodipodi-0.dtd"
   xmlns:inkscape="http://www.inkscape.org/namespaces/inkscape"
   version="1.1"
   id="Layer_1"
   x="0px"
   y="0px"
   width="192.134px"
   height="192.311px"
   viewBox="0 0 192.134 192.311"
   enable-background="new 0 0 192.134 192.311"
   xml:space="preserve"
   inkscape:version="0.91 r13725"
   sodipodi:docname="favicon-sample.svg"><metadata
     id="metadata25"><rdf:RDF><cc:Work
         rdf:about=""><dc:format>image/svg+xml</dc:format><dc:type
           rdf:resource="http://purl.org/dc/dcmitype/StillImage" /></cc:Work></rdf:RDF></metadata><defs
     id="defs23" /><sodipodi:namedview
     pagecolor="#ffffff"
     bordercolor="#666666"
     borderopacity="1"
     objecttolerance="10"
     gridtolerance="10"
     guidetolerance="10"
     inkscape:pageopacity="0"
     inkscape:pageshadow="2"
     inkscape:window-width="1251"
     inkscape:window-height="668"
     id="namedview21"
     showgrid="false"
     inkscape:zoom="1.2271789"
     inkscape:cx="96.067001"
     inkscape:cy="96.155502"
     inkscape:window-x="0"
     inkscape:window-y="116"
     inkscape:window-maximized="0"
     inkscape:current-layer="Layer_1" /><path
     id="path4153"
     d="m -0.86982112,0.60343962 c 64.40009012,0 127.48940112,0 193.80054112,0 0,63.52509438 0,126.40645038 0,191.55592038 -64.63897,0 -127.703781,0 -193.80054112,0 0,-63.489 0,-126.388403 0,-191.55592038 z"
     inkscape:connector-curvature="0"
     style="fill:#6b5c9e;fill-opacity:1" /><path
     fill="#6C5E9E"
     d="M118.262,117.743c-14.93,0-29.268,0-43.948,0c0-14.693,0-29.033,0-43.872c14.581,0,29.06,0,43.948,0  C118.262,88.502,118.262,102.818,118.262,117.743z"
     id="path3"
     style="fill:#ffffff" /><path
     fill="#6C5E9E"
     d="M172.92,74.749c0,13.552,0,26.789,0,40.557c-13.758,0-27.338,0-41.283,0c0-13.597,0-26.817,0-40.557  C145.269,74.749,158.71,74.749,172.92,74.749z"
     id="path5"
     style="fill:#ffffff" /><path
     fill="#6C5E9E"
     d="M19.213,74.931c13.538,0,26.547,0,39.953,0c0,13.307,0,26.297,0,39.847c-13.099,0-26.266,0-39.953,0  C19.213,101.797,19.213,88.643,19.213,74.931z"
     id="path7"
     style="fill:#ffffff" /><path
     fill="#6C5E9E"
     d="M77.436,133.327c13.414,0,26.241,0,39.504,0c0,13.278,0,26.259,0,39.753c-13.095,0-26.072,0-39.504,0  C77.436,159.859,77.436,146.551,77.436,133.327z"
     id="path9"
     style="fill:#ffffff" /><path
     fill="#6C5E9E"
     d="M77.29,57.813c0-13.084,0-25.629,0-38.582c13.071,0,25.83,0,39.186,0c0,12.652,0,25.339,0,38.582  C103.649,57.813,90.743,57.813,77.29,57.813z"
     id="path11"
     style="fill:#ffffff" /><path
     fill="#6C5E9E"
     d="M135.629,133.608c11.104,0,21.821,0,33.105,0c0,11.163,0,22.23,0,33.596c-11.139,0-22.069,0-33.105,0  C135.629,155.831,135.629,144.898,135.629,133.608z"
     id="path13"
     style="fill:#ffffff" /><path
     fill="#6C5E9E"
     d="M168.65,23.46c0,10.859,0,20.957,0,31.619c-10.658,0-21.12,0-32.153,0c0-10.284,0-20.743,0-31.619  C147.07,23.46,157.528,23.46,168.65,23.46z"
     id="path15"
     style="fill:#ffffff" /><path
     fill="#6C5E9E"
     d="M26.836,23.42c10.514,0,20.814,0,31.64,0c0,10.559,0,21.011,0,31.84c-10.553,0-20.849,0-31.64,0  C26.836,44.707,26.836,34.252,26.836,23.42z"
     id="path17"
     style="fill:#ffffff" /><path
     fill="#6C5E9E"
     d="M58.919,137.181c0,2.334,0,3.884,0,5.435c0,8.353,0,16.707,0,25.759c-10.768,0-21.193,0-32.031,0  c0-10.28,0-20.543,0-31.194C37.454,137.181,47.736,137.181,58.919,137.181z"
     id="path19"
     style="fill:#ffffff" /></svg>